<?xml version="1.0" encoding="UTF-8" standalone="no"?><!DOCTYPE svg PUBLIC "-//W3C//DTD SVG 1.1//EN" "http://www.w3.org/Graphics/SVG/1.1/DTD/svg11.dtd"><svg width="100%" height="100%" viewBox="0 0 570 243" version="1.1" xmlns="http://www.w3.org/2000/svg" xmlns:xlink="http://www.w3.org/1999/xlink" xml:space="preserve" xmlns:serif="http://www.serif.com/" style="fill-rule:evenodd;clip-rule:evenodd;stroke-linejoin:round;stroke-miterlimit:2;"><rect id="Artboard2" x="0" y="0" width="569.553" height="242.633" style="fill:none;"/><g><path d="M179.812,157.137l-0,-100.8l26.928,-0l35.424,48.96l-0,-48.96l31.248,-0l-0,100.8l-27.648,-0l-35.424,-48.96l-0,48.96l-30.528,-0Z" style="fill:#ff00a2;fill-rule:nonzero;stroke:#fff;stroke-width:8px;"/><path d="M324.964,159.153c-7.488,-0 -14.304,-1.416 -20.448,-4.248c-6.144,-2.832 -10.992,-7.176 -14.544,-13.032c-3.552,-5.856 -5.328,-13.248 -5.328,-22.176l-0,-2.88c-0,-8.352 1.776,-15.336 5.328,-20.952c3.552,-5.616 8.4,-9.864 14.544,-12.744c6.144,-2.88 12.96,-4.32 20.448,-4.32c7.488,-0 14.28,1.44 20.376,4.32c6.096,2.88 10.92,7.128 14.472,12.744c3.552,5.616 5.328,12.6 5.328,20.952l-0,2.88c-0,8.64 -1.776,15.912 -5.328,21.816c-3.552,5.904 -8.376,10.32 -14.472,13.248c-6.096,2.928 -12.888,4.392 -20.376,4.392Zm-0,-22.032c2.592,-0 4.848,-0.648 6.768,-1.944c1.92,-1.296 3.384,-3.24 4.392,-5.832c1.008,-2.592 1.512,-5.808 1.512,-9.648l-0,-2.88c-0,-3.36 -0.504,-6.24 -1.512,-8.64c-1.008,-2.4 -2.472,-4.224 -4.392,-5.472c-1.92,-1.248 -4.176,-1.872 -6.768,-1.872c-2.784,-0 -5.112,0.624 -6.984,1.872c-1.872,1.248 -3.312,3.072 -4.32,5.472c-1.008,2.4 -1.512,5.28 -1.512,8.64l-0,2.88c-0,3.84 0.504,7.056 1.512,9.648c1.008,2.592 2.448,4.536 4.32,5.832c1.872,1.296 4.2,1.944 6.984,1.944Z" style="fill:#ff00a2;fill-rule:nonzero;stroke:#fff;stroke-width:8px;"/><path d="M403.156,159.153c-6.048,-0 -11.424,-1.416 -16.128,-4.248c-4.704,-2.832 -8.424,-7.152 -11.16,-12.96c-2.736,-5.808 -4.104,-13.128 -4.104,-21.96l-0,-2.88c-0,-8.352 1.272,-15.36 3.816,-21.024c2.544,-5.664 6.192,-9.96 10.944,-12.888c4.752,-2.928 10.344,-4.392 16.776,-4.392c4.32,-0 8.352,0.912 12.096,2.736c3.744,1.824 6.816,4.512 9.216,8.064l-0,-33.264l27.072,-0l-0,100.8l-25.056,-0l-0,-9.504c-1.824,3.168 -4.608,5.88 -8.352,8.136c-3.744,2.256 -8.784,3.384 -15.12,3.384Zm8.352,-22.032c2.4,-0 4.584,-0.552 6.552,-1.656c1.968,-1.104 3.552,-2.832 4.752,-5.184c1.2,-2.352 1.8,-5.256 1.8,-8.712l-0,-5.904c-0,-3.36 -0.6,-6.144 -1.8,-8.352c-1.2,-2.208 -2.784,-3.84 -4.752,-4.896c-1.968,-1.056 -4.152,-1.584 -6.552,-1.584c-3.456,-0 -6.336,1.296 -8.64,3.888c-2.304,2.592 -3.456,6.72 -3.456,12.384l-0,2.88c-0,5.952 1.224,10.296 3.672,13.032c2.448,2.736 5.256,4.104 8.424,4.104Z" style="fill:#ff00a2;fill-rule:nonzero;stroke:#fff;stroke-width:8px;"/><path d="M502.084,159.153c-7.968,-0 -15.048,-1.44 -21.24,-4.32c-6.192,-2.88 -11.04,-7.224 -14.544,-13.032c-3.504,-5.808 -5.256,-13.08 -5.256,-21.816l-0,-2.88c-0,-8.544 1.68,-15.624 5.04,-21.24c3.36,-5.616 8.04,-9.864 14.04,-12.744c6,-2.88 12.84,-4.32 20.52,-4.32c13.248,-0 23.136,3.288 29.664,9.864c6.528,6.576 9.792,16.2 9.792,28.872l-0,8.352l-51.696,-0c0.192,2.976 0.864,5.448 2.016,7.416c1.152,1.968 2.712,3.408 4.68,4.32c1.968,0.912 4.296,1.368 6.984,1.368c3.36,-0 5.976,-0.552 7.848,-1.656c1.872,-1.104 3.144,-2.52 3.816,-4.248l25.344,-0c-1.536,8.832 -5.448,15.384 -11.736,19.656c-6.288,4.272 -14.712,6.408 -25.272,6.408Zm-0.72,-60.192c-2.496,-0 -4.68,0.432 -6.552,1.296c-1.872,0.864 -3.336,2.088 -4.392,3.672c-1.056,1.584 -1.68,3.672 -1.872,6.264l25.056,-0c-0.096,-2.688 -0.672,-4.848 -1.728,-6.48c-1.056,-1.632 -2.472,-2.832 -4.248,-3.6c-1.776,-0.768 -3.864,-1.152 -6.264,-1.152Z" style="fill:#ff00a2;fill-rule:nonzero;stroke:#fff;stroke-width:8px;"/><path d="M179.812,157.137l-0,-100.8l26.928,-0l35.424,48.96l-0,-48.96l31.248,-0l-0,100.8l-27.648,-0l-35.424,-48.96l-0,48.96l-30.528,-0Z" style="fill:#ff00a2;fill-rule:nonzero;"/><path d="M324.964,159.153c-7.488,-0 -14.304,-1.416 -20.448,-4.248c-6.144,-2.832 -10.992,-7.176 -14.544,-13.032c-3.552,-5.856 -5.328,-13.248 -5.328,-22.176l-0,-2.88c-0,-8.352 1.776,-15.336 5.328,-20.952c3.552,-5.616 8.4,-9.864 14.544,-12.744c6.144,-2.88 12.96,-4.32 20.448,-4.32c7.488,-0 14.28,1.44 20.376,4.32c6.096,2.88 10.92,7.128 14.472,12.744c3.552,5.616 5.328,12.6 5.328,20.952l-0,2.88c-0,8.64 -1.776,15.912 -5.328,21.816c-3.552,5.904 -8.376,10.32 -14.472,13.248c-6.096,2.928 -12.888,4.392 -20.376,4.392Zm-0,-22.032c2.592,-0 4.848,-0.648 6.768,-1.944c1.92,-1.296 3.384,-3.24 4.392,-5.832c1.008,-2.592 1.512,-5.808 1.512,-9.648l-0,-2.88c-0,-3.36 -0.504,-6.24 -1.512,-8.64c-1.008,-2.4 -2.472,-4.224 -4.392,-5.472c-1.92,-1.248 -4.176,-1.872 -6.768,-1.872c-2.784,-0 -5.112,0.624 -6.984,1.872c-1.872,1.248 -3.312,3.072 -4.32,5.472c-1.008,2.4 -1.512,5.28 -1.512,8.64l-0,2.88c-0,3.84 0.504,7.056 1.512,9.648c1.008,2.592 2.448,4.536 4.32,5.832c1.872,1.296 4.2,1.944 6.984,1.944Z" style="fill:#ff00a2;fill-rule:nonzero;"/><path d="M403.156,159.153c-6.048,-0 -11.424,-1.416 -16.128,-4.248c-4.704,-2.832 -8.424,-7.152 -11.16,-12.96c-2.736,-5.808 -4.104,-13.128 -4.104,-21.96l-0,-2.88c-0,-8.352 1.272,-15.36 3.816,-21.024c2.544,-5.664 6.192,-9.96 10.944,-12.888c4.752,-2.928 10.344,-4.392 16.776,-4.392c4.32,-0 8.352,0.912 12.096,2.736c3.744,1.824 6.816,4.512 9.216,8.064l-0,-33.264l27.072,-0l-0,100.8l-25.056,-0l-0,-9.504c-1.824,3.168 -4.608,5.88 -8.352,8.136c-3.744,2.256 -8.784,3.384 -15.12,3.384Zm8.352,-22.032c2.4,-0 4.584,-0.552 6.552,-1.656c1.968,-1.104 3.552,-2.832 4.752,-5.184c1.2,-2.352 1.8,-5.256 1.8,-8.712l-0,-5.904c-0,-3.36 -0.6,-6.144 -1.8,-8.352c-1.2,-2.208 -2.784,-3.84 -4.752,-4.896c-1.968,-1.056 -4.152,-1.584 -6.552,-1.584c-3.456,-0 -6.336,1.296 -8.64,3.888c-2.304,2.592 -3.456,6.72 -3.456,12.384l-0,2.88c-0,5.952 1.224,10.296 3.672,13.032c2.448,2.736 5.256,4.104 8.424,4.104Z" style="fill:#ff00a2;fill-rule:nonzero;"/><path d="M502.084,159.153c-7.968,-0 -15.048,-1.44 -21.24,-4.32c-6.192,-2.88 -11.04,-7.224 -14.544,-13.032c-3.504,-5.808 -5.256,-13.08 -5.256,-21.816l-0,-2.88c-0,-8.544 1.68,-15.624 5.04,-21.24c3.36,-5.616 8.04,-9.864 14.04,-12.744c6,-2.88 12.84,-4.32 20.52,-4.32c13.248,-0 23.136,3.288 29.664,9.864c6.528,6.576 9.792,16.2 9.792,28.872l-0,8.352l-51.696,-0c0.192,2.976 0.864,5.448 2.016,7.416c1.152,1.968 2.712,3.408 4.68,4.32c1.968,0.912 4.296,1.368 6.984,1.368c3.36,-0 5.976,-0.552 7.848,-1.656c1.872,-1.104 3.144,-2.52 3.816,-4.248l25.344,-0c-1.536,8.832 -5.448,15.384 -11.736,19.656c-6.288,4.272 -14.712,6.408 -25.272,6.408Zm-0.72,-60.192c-2.496,-0 -4.68,0.432 -6.552,1.296c-1.872,0.864 -3.336,2.088 -4.392,3.672c-1.056,1.584 -1.68,3.672 -1.872,6.264l25.056,-0c-0.096,-2.688 -0.672,-4.848 -1.728,-6.48c-1.056,-1.632 -2.472,-2.832 -4.248,-3.6c-1.776,-0.768 -3.864,-1.152 -6.264,-1.152Z" style="fill:#ff00a2;fill-rule:nonzero;"/><path d="M117.46,217.079l-0,-100.8l43.92,0c9.888,0 17.952,1.392 24.192,4.176c6.24,2.784 10.848,6.792 13.824,12.024c2.976,5.232 4.464,11.64 4.464,19.224c-0,7.2 -1.488,13.392 -4.464,18.576c-2.976,5.184 -7.584,9.168 -13.824,11.952c-6.24,2.784 -14.304,4.176 -24.192,4.176l-11.952,0l-0,30.672l-31.968,0Zm31.968,-54.432l8.352,0c5.184,0 8.832,-0.984 10.944,-2.952c2.112,-1.968 3.168,-4.632 3.168,-7.992c-0,-3.36 -1.056,-6.024 -3.168,-7.992c-2.112,-1.968 -5.76,-2.952 -10.944,-2.952l-8.352,0l-0,21.888Z" style="fill:#fff;fill-rule:nonzero;"/><path d="M85.576,191.159l-0,-74.88l-28.656,0l-0,-25.92l89.28,0l-0,25.92l-28.656,0l-0,74.88l-31.968,0Z" style="fill:#ff00a2;fill-rule:nonzero;stroke:#fff;stroke-width:8px;"/><path d="M85.576,191.159l-0,-74.88l-28.656,0l-0,-25.92l89.28,0l-0,25.92l-28.656,0l-0,74.88l-31.968,0Z" style="fill:#ff00a2;fill-rule:nonzero;"/><path d="M25.309,126.354l0,-100.8l73.44,0l0,23.76l-41.472,0l0,18.864l37.152,0l0,22.608l-37.152,0l0,35.568l-31.968,0Z" style="fill:#fff;fill-rule:nonzero;"/><path d="M117.109,44.601l12.993,12.993l-12.993,12.993l-12.993,-12.993l12.993,-12.993Z" style="fill:#fff;"/><path d="M366.492,150.847l14.7,14.701l-14.7,14.7l-14.701,-14.7l14.701,-14.701Z" style="fill:#fff;"/><path d="M304.891,40.698l13.237,13.237l-13.237,13.236l-13.237,-13.236l13.237,-13.237Z" style="fill:#fff;"/><path d="M224.993,152.677l18.36,18.36l-18.36,18.36l-18.36,-18.36l18.36,-18.36Z" style="fill:#fff;"/><path d="M117.109,57.594l107.884,113.443l141.499,-5.489" style="fill:none;stroke:#fff;stroke-width:2.33px;stroke-linecap:round;stroke-miterlimit:1.5;"/><path d="M224.993,171.037l79.898,-117.102" style="fill:none;stroke:#fff;stroke-width:2.33px;stroke-linecap:round;stroke-miterlimit:1.5;"/></g></svg>