<?xml version="1.0" encoding="UTF-8" standalone="no"?><!DOCTYPE svg PUBLIC "-//W3C//DTD SVG 1.1//EN" "http://www.w3.org/Graphics/SVG/1.1/DTD/svg11.dtd"><svg width="100%" height="100%" viewBox="0 0 600 600" version="1.1" xmlns="http://www.w3.org/2000/svg" xmlns:xlink="http://www.w3.org/1999/xlink" xml:space="preserve" xmlns:serif="http://www.serif.com/" style="fill-rule:evenodd;clip-rule:evenodd;stroke-linejoin:round;stroke-miterlimit:2;"><rect id="Artboard1" x="0" y="0" width="600" height="600" style="fill:none;"/><g><rect x="111.616" y="64.607" width="15.019" height="493.947" style="fill:#ff00a2;"/><path d="M461.926,565.064l0,-15.019l-350.31,-0l-0,15.019l350.31,-0Z" style="fill:#ff00a2;"/><path d="M341.834,34.936l-202.814,0l-0,502.653l349.364,-0l0,-356.103l-146.55,-146.55Zm-26.495,154.464l-21.357,-21.357l34.656,-34.656l34.656,34.656l-34.656,34.656l-7.548,-7.548l-17.822,41.43l61.069,0l-0,35.51l-39.258,-0l0,90.999l16.279,-9.025l0,-0.6l1.083,-0l68.236,-37.832l-5.673,-5.674l23.697,-23.697l23.696,23.697l-23.696,23.697l-12.467,-12.466l-58.213,32.275l44.973,-0c13.877,-0 25.193,1.953 33.95,5.86c8.757,3.907 15.224,9.532 19.401,16.874c4.176,7.342 6.264,16.335 6.264,26.978c0,10.105 -2.088,18.794 -6.264,26.069c-4.177,7.275 -10.644,12.866 -19.401,16.773c-8.757,3.907 -20.073,5.861 -33.95,5.861l-16.773,-0l0,43.044l-44.863,-0l0,-132.222l-16.279,9.026l0,2.946l-5.313,-0l-77.553,42.997l9.582,9.582l-34.655,34.656l-34.656,-34.656l34.656,-34.656l7.548,7.549l55.082,-128.055l-37.744,-0l0,-35.51l53.019,0l20.294,-47.181Zm70.882,229.136l11.721,-0c7.275,-0 12.395,-1.381 15.359,-4.143c2.963,-2.762 4.445,-6.5 4.445,-11.216c0,-4.715 -1.482,-8.454 -4.445,-11.215c-2.964,-2.762 -8.084,-4.143 -15.359,-4.143l-11.721,-0l0,30.717Zm-104.937,-130.846l-50.846,118.206l6.218,6.218l67.53,-37.44l-22.902,-0l-0,-86.984Zm-106.96,-51.109l0,-127.532l92.916,0l0,30.061l-52.47,0l0,23.867l47.005,0l-0,28.604l-47.005,-0l0,45l-40.446,0Z" style="fill:#ff00a2;"/></g></svg>